<svg width="24" height="22" viewBox="0 0 24 22" fill="none" xmlns="http://www.w3.org/2000/svg">
<path d="M18.5307 20.8777L18.2044 21.2565C18.2993 21.3383 18.4214 21.3814 18.5465 21.3774L18.5307 20.8777ZM16.5412 18.2783C16.3701 18.0615 16.0556 18.0246 15.8389 18.1957C15.6222 18.3668 15.5852 18.6812 15.7563 18.8979L16.5412 18.2783ZM17.4403 17.4138L17.2664 16.9451C17.2598 16.9475 17.2532 16.9501 17.2467 16.9529L17.4403 17.4138ZM14.6028 18.2554L14.5189 17.7624L14.5107 17.764L14.6028 18.2554ZM9.53435 18.2359L9.43957 18.7268L9.4426 18.7274L9.53435 18.2359ZM6.65765 17.3944L6.47542 17.86L6.4759 17.8602L6.65765 17.3944ZM5.22893 16.729L4.95092 17.1446C4.96189 17.152 4.97315 17.1589 4.98467 17.1653L5.22893 16.729ZM5.05288 16.6311L5.33045 16.2152C5.31313 16.2037 5.29511 16.1932 5.27648 16.1839L5.05288 16.6311ZM4.97462 16.5725L5.32817 16.219C5.29533 16.1861 5.25807 16.158 5.21747 16.1355L4.97462 16.5725ZM8.24382 18.8587C8.41489 18.6419 8.37785 18.3275 8.16108 18.1564C7.94432 17.9853 7.62991 18.0224 7.45883 18.2392L8.24382 18.8587ZM5.46949 20.8777L5.45366 21.3774C5.58096 21.3815 5.70499 21.3368 5.80046 21.2525L5.46949 20.8777ZM0.571533 17.1987H0.0715332C0.0715332 17.2255 0.0736791 17.2522 0.0779502 17.2786L0.571533 17.1987ZM3.38951 3.3406L3.08951 2.9406C3.01294 2.99803 2.95447 3.07622 2.92103 3.1659L3.38951 3.3406ZM8.88849 1.28581L9.38623 1.2384C9.36219 0.985952 9.15297 0.791481 8.89944 0.785927L8.88849 1.28581ZM8.58645 3.38814C8.61263 3.66304 8.85671 3.86466 9.13161 3.83848C9.4065 3.8123 9.60813 3.56823 9.58195 3.29333L8.58645 3.38814ZM14.3417 3.3553C14.3065 3.62919 14.5 3.87974 14.7739 3.91492C15.0478 3.9501 15.2984 3.75658 15.3335 3.48269L14.3417 3.3553ZM15.1116 1.28594L15.1006 0.786062C14.8533 0.791491 14.6472 0.976913 14.6157 1.22224L15.1116 1.28594ZM20.6106 3.34073L21.079 3.16602C21.0456 3.07635 20.9871 2.99817 20.9106 2.94074L20.6106 3.34073ZM23.4287 17.1987L23.9223 17.2786C23.9265 17.2522 23.9287 17.2255 23.9287 17.1987H23.4287ZM10.3366 13.2065L9.83661 13.1982V13.2065H10.3366ZM18.5307 20.8777C18.857 20.4988 18.857 20.4988 18.857 20.4988C18.857 20.4988 18.857 20.4988 18.857 20.4988C18.857 20.4988 18.8569 20.4987 18.8568 20.4987C18.8566 20.4985 18.8563 20.4982 18.8559 20.4979C18.8552 20.4972 18.8539 20.4962 18.8523 20.4948C18.8491 20.492 18.8441 20.4877 18.8377 20.4821C18.8247 20.4709 18.8055 20.4542 18.7808 20.4327C18.7313 20.3896 18.6597 20.327 18.5719 20.2496C18.3962 20.0945 18.1561 19.8804 17.8981 19.6435C17.3711 19.1595 16.8058 18.6135 16.5412 18.2783L15.7563 18.8979C16.0788 19.3064 16.7046 19.9052 17.2217 20.38C17.4859 20.6226 17.7311 20.8414 17.9103 20.9994C17.9999 21.0785 18.0732 21.1426 18.1241 21.1869C18.1496 21.2091 18.1695 21.2264 18.1832 21.2382C18.19 21.2441 18.1952 21.2486 18.1988 21.2517C18.2006 21.2532 18.2019 21.2544 18.2029 21.2552C18.2034 21.2556 18.2037 21.2559 18.204 21.2561C18.2041 21.2563 18.2042 21.2563 18.2043 21.2564C18.2043 21.2564 18.2043 21.2565 18.2044 21.2565C18.2044 21.2565 18.2044 21.2565 18.5307 20.8777ZM19.4159 15.8418C18.6451 16.3493 17.9158 16.7041 17.2664 16.9451L17.6143 17.8826C18.3347 17.6153 19.1318 17.2262 19.9659 16.6769L19.4159 15.8418ZM17.2467 16.9529C16.301 17.3502 15.3984 17.6127 14.5189 17.7625L14.6868 18.7483C15.6467 18.5848 16.6228 18.2997 17.634 17.8748L17.2467 16.9529ZM14.5107 17.764C12.7039 18.1027 11.0453 18.0093 9.62611 17.7444L9.4426 18.7274C10.9587 19.0104 12.7442 19.1126 14.695 18.7468L14.5107 17.764ZM9.62914 17.7449C8.55006 17.5366 7.62075 17.2335 6.8394 16.9286L6.4759 17.8602C7.29905 18.1814 8.28754 18.5044 9.43957 18.7268L9.62914 17.7449ZM6.83988 16.9288C6.40346 16.758 5.93652 16.5522 5.47318 16.2928L4.98467 17.1653C5.50003 17.4538 6.01153 17.6785 6.47542 17.86L6.83988 16.9288ZM5.50693 16.3134C5.44764 16.2738 5.39089 16.246 5.36466 16.2329C5.33205 16.2166 5.32999 16.2149 5.33045 16.2152L4.77531 17.047C4.8345 17.0865 4.89116 17.1142 4.91725 17.1272C4.94971 17.1435 4.95162 17.1451 4.95092 17.1446L5.50693 16.3134ZM5.27648 16.1839C5.28828 16.1898 5.30316 16.1989 5.31825 16.211C5.3306 16.2208 5.33883 16.2296 5.32817 16.219L4.62107 16.9261C4.65175 16.9568 4.71707 17.0222 4.82927 17.0783L5.27648 16.1839ZM5.21747 16.1355C5.05024 16.0425 4.92131 15.9642 4.83556 15.91C4.7927 15.883 4.76068 15.862 4.7401 15.8482C4.72981 15.8414 4.72239 15.8364 4.71791 15.8333C4.71567 15.8318 4.71417 15.8307 4.71341 15.8302C4.71303 15.8299 4.71284 15.8298 4.71284 15.8298C4.71283 15.8298 4.71288 15.8298 4.71297 15.8299C4.71302 15.8299 4.71307 15.83 4.71314 15.83C4.71318 15.83 4.71322 15.8301 4.71326 15.8301C4.71328 15.8301 4.71331 15.8301 4.71332 15.8301C4.71335 15.8302 4.71339 15.8302 4.42667 16.2398C4.13996 16.6494 4.14 16.6495 4.14003 16.6495C4.14005 16.6495 4.14008 16.6495 4.14011 16.6495C4.14016 16.6496 4.14022 16.6496 4.14028 16.6497C4.14039 16.6497 4.14052 16.6498 4.14066 16.6499C4.14095 16.6501 4.14128 16.6504 4.14166 16.6506C4.14241 16.6512 4.14336 16.6518 4.1445 16.6526C4.14678 16.6542 4.14983 16.6563 4.15363 16.6589C4.16123 16.6641 4.17185 16.6713 4.18542 16.6803C4.21254 16.6984 4.25146 16.7239 4.30156 16.7555C4.40172 16.8188 4.54677 16.9068 4.73177 17.0096L5.21747 16.1355ZM7.45883 18.2392C7.19248 18.5766 6.62525 19.1337 6.0984 19.6274C5.84021 19.8693 5.59988 20.0885 5.42402 20.2473C5.33615 20.3266 5.26452 20.3908 5.21496 20.435C5.19019 20.4571 5.17094 20.4742 5.15796 20.4857C5.15147 20.4914 5.14654 20.4958 5.14327 20.4987C5.14164 20.5001 5.14042 20.5012 5.13962 20.5019C5.13923 20.5023 5.13893 20.5025 5.13875 20.5027C5.13866 20.5028 5.1386 20.5028 5.13856 20.5029C5.13854 20.5029 5.13853 20.5029 5.13852 20.5029C5.13852 20.5029 5.13853 20.5029 5.46949 20.8777C5.80046 21.2525 5.80048 21.2524 5.8005 21.2524C5.80052 21.2524 5.80055 21.2524 5.80059 21.2523C5.80066 21.2523 5.80076 21.2522 5.80089 21.2521C5.80114 21.2519 5.8015 21.2515 5.80197 21.2511C5.8029 21.2503 5.80427 21.2491 5.80605 21.2475C5.8096 21.2444 5.81483 21.2397 5.82163 21.2337C5.83522 21.2217 5.85511 21.204 5.88056 21.1813C5.93145 21.1359 6.00462 21.0704 6.09419 20.9895C6.27321 20.8279 6.51827 20.6043 6.78216 20.3571C7.29947 19.8723 7.92316 19.265 8.24382 18.8587L7.45883 18.2392ZM5.48532 20.3779C3.4817 20.3145 2.39481 19.4737 1.79718 18.6849C1.49211 18.2822 1.307 17.8823 1.19864 17.5837C1.14464 17.4349 1.11029 17.3129 1.08987 17.2307C1.07967 17.1896 1.07299 17.1587 1.0691 17.1394C1.06716 17.1298 1.06592 17.1232 1.06528 17.1197C1.06497 17.1179 1.0648 17.117 1.06478 17.1168C1.06477 17.1167 1.06479 17.1169 1.06485 17.1172C1.06487 17.1174 1.06491 17.1176 1.06496 17.1179C1.06498 17.118 1.06502 17.1183 1.06503 17.1183C1.06507 17.1186 1.06512 17.1189 0.571533 17.1987C0.0779502 17.2786 0.0779987 17.2789 0.0780496 17.2792C0.0780696 17.2793 0.078123 17.2796 0.0781632 17.2799C0.0782438 17.2804 0.0783339 17.2809 0.0784338 17.2815C0.0786337 17.2827 0.0788727 17.2841 0.0791525 17.2858C0.0797122 17.289 0.0804351 17.2932 0.0813339 17.2981C0.0831314 17.308 0.0856341 17.3213 0.0889437 17.3376C0.0955605 17.3704 0.105418 17.4156 0.119337 17.4717C0.147148 17.5837 0.191348 17.7395 0.258641 17.9249C0.392871 18.2947 0.621325 18.7888 1.00012 19.2888C1.77023 20.3052 3.13233 21.3039 5.45366 21.3774L5.48532 20.3779ZM1.07153 17.1987C1.07153 14.1116 1.76359 10.6955 2.46406 8.03391C2.81332 6.70684 3.1626 5.57493 3.42438 4.77538C3.55524 4.37571 3.66412 4.0594 3.74007 3.8436C3.77804 3.73571 3.80777 3.65298 3.82789 3.59754C3.83794 3.56982 3.8456 3.54893 3.85067 3.53513C3.85321 3.52823 3.8551 3.52311 3.85633 3.51979C3.85695 3.51813 3.85739 3.51693 3.85767 3.51618C3.85781 3.5158 3.85791 3.51554 3.85796 3.5154C3.85799 3.51532 3.858 3.5153 3.85801 3.51526C3.85801 3.51527 3.858 3.5153 3.38951 3.3406C2.92103 3.1659 2.92099 3.16599 2.92095 3.16611C2.92092 3.16619 2.92086 3.16634 2.92081 3.16649C2.92069 3.16681 2.92053 3.16723 2.92033 3.16778C2.91992 3.16886 2.91935 3.17041 2.91861 3.17241C2.91713 3.1764 2.91498 3.18221 2.91219 3.18981C2.9066 3.20499 2.89843 3.2273 2.88785 3.25647C2.86668 3.3148 2.83587 3.40057 2.79679 3.51162C2.71863 3.7337 2.60736 4.05698 2.47402 4.46422C2.20743 5.27848 1.85223 6.4296 1.49699 7.77939C0.788471 10.4715 0.0715332 13.9845 0.0715332 17.1987H1.07153ZM3.68952 3.7406C5.03496 2.7315 6.34487 2.24293 7.31427 2.00638C7.79903 1.88809 8.19786 1.83303 8.47193 1.8075C8.6089 1.79474 8.71448 1.78937 8.78378 1.78716C8.81842 1.78605 8.84396 1.78573 8.8598 1.78566C8.86772 1.78563 8.87321 1.78566 8.87619 1.78568C8.87768 1.7857 8.87855 1.78571 8.87877 1.78571C8.87889 1.78571 8.87884 1.78571 8.87864 1.78571C8.87853 1.78571 8.87839 1.78571 8.87821 1.7857C8.87812 1.7857 8.87795 1.7857 8.8779 1.7857C8.87772 1.78569 8.87754 1.78569 8.88849 1.28581C8.89944 0.785927 8.89923 0.785923 8.89901 0.785918C8.89892 0.785916 8.89869 0.785911 8.89852 0.785908C8.89817 0.785901 8.89779 0.785893 8.89736 0.785885C8.8965 0.785869 8.89548 0.785851 8.89429 0.785833C8.89192 0.785796 8.8889 0.785757 8.88523 0.785724C8.87789 0.785657 8.86798 0.785616 8.85558 0.785668C8.83077 0.785773 8.79596 0.786254 8.75179 0.787668C8.66346 0.790494 8.53757 0.797053 8.37917 0.811811C8.06249 0.841313 7.61495 0.903668 7.07721 1.03489C6.00163 1.29735 4.56205 1.83618 3.08951 2.9406L3.68952 3.7406ZM8.39074 1.33321L8.58645 3.38814L9.58195 3.29333L9.38623 1.2384L8.39074 1.33321ZM15.3335 3.48269L15.6075 1.34964L14.6157 1.22224L14.3417 3.3553L15.3335 3.48269ZM15.1116 1.28594C15.1226 1.78582 15.1224 1.78582 15.1222 1.78583C15.1221 1.78583 15.122 1.78583 15.1219 1.78583C15.1217 1.78584 15.1216 1.78584 15.1215 1.78584C15.1213 1.78585 15.1212 1.78585 15.1213 1.78585C15.1215 1.78584 15.1224 1.78583 15.1239 1.78582C15.1269 1.78579 15.1324 1.78576 15.1403 1.78579C15.1561 1.78586 15.1817 1.78618 15.2163 1.78729C15.2856 1.7895 15.3912 1.79486 15.5282 1.80762C15.8022 1.83314 16.2011 1.88819 16.6858 2.00647C17.6552 2.243 18.9651 2.73156 20.3105 3.74072L20.9106 2.94074C19.438 1.83625 17.9984 1.29742 16.9229 1.03497C16.3851 0.903758 15.9376 0.841416 15.6209 0.811924C15.4625 0.797172 15.3366 0.790618 15.2483 0.787795C15.2041 0.786384 15.1693 0.785904 15.1445 0.785801C15.1321 0.785749 15.1222 0.785791 15.1148 0.785857C15.1112 0.785891 15.1081 0.78593 15.1058 0.785967C15.1046 0.785986 15.1035 0.786003 15.1027 0.78602C15.1023 0.786028 15.1019 0.786035 15.1015 0.786042C15.1014 0.786046 15.1011 0.786051 15.101 0.786052C15.1008 0.786057 15.1006 0.786062 15.1116 1.28594ZM20.6106 3.34073C20.1421 3.51545 20.1421 3.51541 20.1421 3.51541C20.1421 3.51544 20.1421 3.51547 20.1421 3.51554C20.1422 3.51569 20.1423 3.51595 20.1424 3.51632C20.1427 3.51707 20.1431 3.51828 20.1437 3.51994C20.145 3.52325 20.1469 3.52838 20.1494 3.53527C20.1545 3.54907 20.1621 3.56996 20.1722 3.59768C20.1923 3.65312 20.222 3.73585 20.26 3.84374C20.336 4.05953 20.4449 4.37584 20.5757 4.7755C20.8375 5.57504 21.1868 6.70693 21.5361 8.03398C22.2366 10.6955 22.9287 14.1116 22.9287 17.1987H23.9287C23.9287 13.9845 23.2117 10.4716 22.5031 7.77945C22.1479 6.42968 21.7927 5.27857 21.5261 4.46433C21.3927 4.05709 21.2815 3.73381 21.2033 3.51174C21.1642 3.40069 21.1334 3.31492 21.1122 3.25659C21.1016 3.22743 21.0935 3.20512 21.0879 3.18993C21.0851 3.18234 21.0829 3.17653 21.0815 3.17253C21.0807 3.17053 21.0801 3.16899 21.0797 3.1679C21.0795 3.16736 21.0794 3.16693 21.0793 3.16662C21.0792 3.16646 21.0791 3.16631 21.0791 3.16623C21.0791 3.16611 21.079 3.16602 20.6106 3.34073ZM23.4287 17.1987C22.9351 17.1189 22.9351 17.1186 22.9352 17.1183C22.9352 17.1183 22.9352 17.118 22.9353 17.1179C22.9353 17.1176 22.9353 17.1174 22.9354 17.1172C22.9354 17.1169 22.9354 17.1167 22.9354 17.1168C22.9354 17.1169 22.9352 17.1179 22.9349 17.1196C22.9343 17.1231 22.933 17.1298 22.9311 17.1394C22.9272 17.1586 22.9205 17.1896 22.9103 17.2307C22.8899 17.3129 22.8556 17.4349 22.8016 17.5837C22.6932 17.8823 22.5081 18.2822 22.203 18.6849C21.6053 19.4737 20.5184 20.3145 18.5149 20.3779L18.5465 21.3774C20.8678 21.3039 22.2299 20.3052 23 19.2888C23.3788 18.7888 23.6073 18.2947 23.7415 17.9249C23.8088 17.7395 23.853 17.5837 23.8809 17.4717C23.8948 17.4156 23.9046 17.3704 23.9113 17.3377C23.9146 17.3213 23.9171 17.308 23.9189 17.2981C23.9198 17.2932 23.9205 17.289 23.9211 17.2858C23.9213 17.2841 23.9216 17.2827 23.9218 17.2815C23.9219 17.2809 23.922 17.2804 23.922 17.2799C23.9221 17.2796 23.9221 17.2793 23.9222 17.2792C23.9222 17.2789 23.9223 17.2786 23.4287 17.1987ZM8.34054 10.5343C6.90712 10.5343 5.84461 11.7804 5.84461 13.2065H6.84461C6.84461 12.2451 7.54313 11.5343 8.34054 11.5343V10.5343ZM5.84461 13.2065C5.84461 14.6359 6.92967 15.8787 8.34054 15.8787V14.8787C7.55964 14.8787 6.84461 14.1646 6.84461 13.2065H5.84461ZM8.34054 15.8787C9.7741 15.8787 10.8366 14.6326 10.8366 13.2065H9.83661C9.83661 14.1679 9.13809 14.8787 8.34054 14.8787V15.8787ZM10.8365 13.2147C10.8603 11.7743 9.76689 10.5343 8.34054 10.5343V11.5343C9.14503 11.5343 9.85227 12.2512 9.83667 13.1982L10.8365 13.2147ZM15.4835 10.5343C14.05 10.5343 12.9873 11.7804 12.9873 13.2065H13.9873C13.9873 12.2452 14.6859 11.5343 15.4835 11.5343V10.5343ZM12.9873 13.2065C12.9873 14.636 14.0727 15.8787 15.4835 15.8787V14.8787C14.7025 14.8787 13.9873 14.1645 13.9873 13.2065H12.9873ZM15.4835 15.8787C16.9169 15.8787 17.9794 14.6326 17.9794 13.2065H16.9794C16.9794 14.168 16.2809 14.8787 15.4835 14.8787V15.8787ZM17.9794 13.2065C17.9794 11.7804 16.9169 10.5343 15.4835 10.5343V11.5343C16.2809 11.5343 16.9794 12.2451 16.9794 13.2065H17.9794ZM5.70889 5.8064C8.09078 4.50739 10.0628 3.88339 12.0038 3.88243C13.9445 3.88147 15.9138 4.50334 18.2904 5.8059L18.771 4.92898C16.3112 3.5808 14.1727 2.88136 12.0033 2.88243C9.83414 2.88351 7.69372 3.58489 5.23009 4.92848L5.70889 5.8064Z" fill="#1A467E"/>
</svg>
