<svg width="28" height="28" viewBox="0 0 28 28" fill="none" xmlns="http://www.w3.org/2000/svg">
<path d="M0 0V28H28V0H0ZM23.25 6.6875L21.75 8.125C21.625 8.1875 21.5625 8.375 21.5625 8.5V19.125C21.5625 19.25 21.625 19.4375 21.75 19.5L23.1875 20.9375V21.25H15.8125V20.9375L17.375 19.5C17.5 19.3125 17.5 19.3125 17.5 19.0625V10.5L13.25 21.25H12.6875L7.8125 10.5V17.6875C7.75 18 7.875 18.3125 8.0625 18.5L10.0625 20.9375V21.25H4.4375V20.9375L6.375 18.5C6.625 18.3125 6.6875 18 6.625 17.6875V9.375C6.6875 9.1875 6.5625 8.9375 6.4375 8.75L4.6875 6.6875V6.3125H10.125L14.3125 15.5625L18.0625 6.375H23.25V6.6875Z" fill="#14345E"/>
</svg>
