<svg width="32" height="32" viewBox="0 0 32 32" fill="none" xmlns="http://www.w3.org/2000/svg">
<path d="M13.9375 10.5938C13.625 10.9062 13.6562 11.375 13.9375 11.6875L17.7188 15.25H8.75C8.3125 15.25 8 15.5938 8 16V17C8 17.4375 8.3125 17.75 8.75 17.75H17.7188L13.9375 21.3438C13.6562 21.6562 13.6562 22.125 13.9375 22.4375L14.625 23.125C14.9375 23.4062 15.4062 23.4062 15.6875 23.125L21.7812 17.0312C22.0625 16.75 22.0625 16.2812 21.7812 15.9688L15.6875 9.90625C15.4062 9.625 14.9375 9.625 14.625 9.90625L13.9375 10.5938Z" fill="#1A467E"/>
</svg>
