<svg width="15" height="15" viewBox="0 0 15 15" fill="none" xmlns="http://www.w3.org/2000/svg">
<path d="M9.03125 13.4375C9.34375 13.125 9.3125 12.6562 9.03125 12.3438L5.25 8.75H14.25C14.6562 8.75 15 8.4375 15 8V7C15 6.59375 14.6562 6.25 14.25 6.25H5.25L9.03125 2.6875C9.3125 2.375 9.34375 1.90625 9.03125 1.59375L8.34375 0.90625C8.0625 0.625 7.5625 0.625 7.28125 0.90625L1.21875 7C0.90625 7.28125 0.90625 7.75 1.21875 8.03125L7.28125 14.125C7.5625 14.4062 8.03125 14.4062 8.34375 14.125L9.03125 13.4375Z" fill="#1A467E"/>
</svg>
