<svg width="24" height="25" viewBox="0 0 24 25" fill="none" xmlns="http://www.w3.org/2000/svg">
<path d="M16.201 18.077L16.6589 17.8761L16.257 16.9604L15.7992 17.1613L16.201 18.077ZM8.20104 17.1613L7.74319 16.9604L7.34132 17.8761L7.79917 18.077L8.20104 17.1613ZM12.0001 2.97632L12.0915 2.48475C11.9454 2.45757 11.7948 2.4968 11.6805 2.59179C11.5662 2.68679 11.5001 2.8277 11.5001 2.97631L12.0001 2.97632ZM18.3087 4.65833C18.5802 4.70883 18.8412 4.52969 18.8917 4.2582C18.9422 3.98671 18.763 3.7257 18.4915 3.6752L18.3087 4.65833ZM20.643 15.8335C20.643 17.2997 19.7627 18.7104 18.2054 19.7765C16.6518 20.8401 14.4674 21.5239 12.0001 21.5239V22.5239C14.643 22.5239 17.03 21.7931 18.7703 20.6017C20.5069 19.4128 21.643 17.7283 21.643 15.8335H20.643ZM12.0001 21.5239C9.53272 21.5239 7.34836 20.8401 5.79476 19.7765C4.2375 18.7104 3.35725 17.2997 3.35725 15.8335H2.35725C2.35725 17.7283 3.49327 19.4128 5.22985 20.6017C6.97009 21.7931 9.35713 22.5239 12.0001 22.5239V21.5239ZM3.35725 15.8335C3.35725 14.3518 4.25407 12.7566 5.82298 11.5124C7.38272 10.2755 9.55926 9.4287 12.0001 9.4287V8.4287C9.3306 8.4287 6.93573 9.35372 5.20162 10.7289C3.4767 12.0968 2.35725 13.9541 2.35725 15.8335H3.35725ZM12.0001 9.4287C14.4409 9.4287 16.6174 10.2755 18.1772 11.5124C19.7461 12.7566 20.643 14.3518 20.643 15.8335H21.643C21.643 13.9541 20.5235 12.0968 18.7985 10.7289C17.0644 9.35372 14.6695 8.4287 12.0001 8.4287V9.4287ZM15.7992 17.1613C14.6656 17.6588 13.6205 17.9525 12.0001 17.9525V18.9525C13.7768 18.9525 14.9582 18.6225 16.201 18.077L15.7992 17.1613ZM12.0001 17.9525C10.3797 17.9525 9.33463 17.6588 8.20104 17.1613L7.79917 18.077C9.04199 18.6225 10.2234 18.9525 12.0001 18.9525V17.9525ZM12.5001 8.9287L12.5001 2.97632L11.5001 2.97631L11.5001 8.9287L12.5001 8.9287ZM11.9087 3.46789L18.3087 4.65833L18.4915 3.6752L12.0915 2.48475L11.9087 3.46789ZM20.0001 4.85727C19.6641 4.85727 19.3572 4.56757 19.3572 4.16679H18.3572C18.3572 5.08099 19.0737 5.85727 20.0001 5.85727V4.85727ZM20.643 4.16679C20.643 4.56757 20.3361 4.85727 20.0001 4.85727V5.85727C20.9265 5.85727 21.643 5.08099 21.643 4.16679H20.643ZM20.0001 3.47632C20.3361 3.47632 20.643 3.76602 20.643 4.16679H21.643C21.643 3.2526 20.9265 2.47632 20.0001 2.47632V3.47632ZM20.0001 2.47632C19.0737 2.47632 18.3572 3.2526 18.3572 4.16679H19.3572C19.3572 3.76602 19.6641 3.47632 20.0001 3.47632V2.47632ZM8.0001 14.1906H9.14296V13.1906H8.0001V14.1906ZM14.8572 14.1906H16.0001V13.1906H14.8572V14.1906ZM22.9287 12.5001C22.9287 13.5584 22.1102 14.3811 21.143 14.3811V15.3811C22.7005 15.3811 23.9287 14.0718 23.9287 12.5001H22.9287ZM23.9287 12.5001C23.9287 10.9285 22.7005 9.61918 21.143 9.61918V10.6192C22.1102 10.6192 22.9287 11.4419 22.9287 12.5001H23.9287ZM19.5067 11.7455C19.787 11.0726 20.4218 10.6192 21.143 10.6192V9.61918C19.9856 9.61918 19.0063 10.3462 18.5836 11.361L19.5067 11.7455ZM0.0715332 12.5001C0.0715332 14.0718 1.2997 15.3811 2.85725 15.3811V14.3811C1.89007 14.3811 1.07153 13.5584 1.07153 12.5001H0.0715332ZM1.07153 12.5001C1.07153 11.4419 1.89007 10.6192 2.85725 10.6192V9.61918C1.2997 9.61918 0.0715332 10.9285 0.0715332 12.5001H1.07153ZM5.41662 11.361C4.99392 10.3462 4.01467 9.61918 2.85725 9.61918V10.6192C3.57847 10.6192 4.21319 11.0726 4.4935 11.7455L5.41662 11.361Z" fill="#1A467E"/>
</svg>
