<svg width="32" height="32" viewBox="0 0 32 32" fill="none" xmlns="http://www.w3.org/2000/svg">
<path d="M12.5625 19.125C13.4375 19.125 14.125 18.4375 14.125 17.5625C14.125 16.75 13.4375 16 12.5625 16C11.6875 16 11 16.75 11 17.5625C11 18.4375 11.6875 19.125 12.5625 19.125ZM31.5 16C31.5 7.4375 24.5625 0.5 16 0.5C7.4375 0.5 0.5 7.4375 0.5 16C0.5 24.5625 7.4375 31.5 16 31.5C24.5625 31.5 31.5 24.5625 31.5 16ZM23.1875 13.4375C25.375 13.4375 26.0625 16.375 24.125 17.375C24.1875 17.6875 24.25 18 24.25 18.375C24.25 21.625 20.5625 24.3125 16 24.3125C11.4375 24.3125 7.75 21.625 7.75 18.375C7.75 18 7.75 17.6875 7.8125 17.375C5.875 16.375 6.5625 13.4375 8.75 13.4375C9.3125 13.4375 9.875 13.6875 10.25 14.0625C11.625 13.125 13.5 12.5 15.5625 12.4375L16.8125 7C16.8125 6.8125 17 6.6875 17.1875 6.75L21.0625 7.5625C21.3125 7.0625 21.8125 6.75 22.4375 6.75C23.3125 6.75 24 7.4375 24 8.3125C24 9.125 23.3125 9.8125 22.4375 9.8125C21.5625 9.8125 20.875 9.125 20.875 8.3125L17.4375 7.5L16.3125 12.4375C18.4375 12.5 20.3125 13.125 21.6875 14.0625C22.125 13.6875 22.625 13.4375 23.1875 13.4375ZM18.875 20.6875C17.75 21.875 14.125 21.8125 13.0625 20.6875C12.9375 20.5625 12.6875 20.5625 12.5 20.6875C12.375 20.875 12.375 21.125 12.5 21.25C13.9375 22.6875 18 22.6875 19.4375 21.25C19.5625 21.125 19.5625 20.875 19.4375 20.6875C19.25 20.5625 19.0625 20.5625 18.875 20.6875ZM19.375 16C18.5 16 17.8125 16.75 17.8125 17.5625C17.8125 18.4375 18.5625 19.125 19.375 19.125C20.25 19.125 20.9375 18.4375 20.9375 17.5625C20.9375 16.75 20.25 16 19.375 16Z" fill="#14345E"/>
</svg>
