<svg width="31" height="32" viewBox="0 0 31 32" fill="none" xmlns="http://www.w3.org/2000/svg">
<path d="M15.5 0.5C6.9375 0.5 0 7.4375 0 16C0 24.5625 6.9375 31.5 15.5 31.5C24.0625 31.5 31 24.5625 31 16C31 7.4375 24.0625 0.5 15.5 0.5ZM23.0625 11.125L20.5625 23.125C20.375 24 19.875 24.1875 19.125 23.8125L15.25 20.9375L13.375 22.75C13.1875 22.9375 13 23.125 12.625 23.125L12.875 19.1875L20.0625 12.6875C20.375 12.4375 20 12.25 19.5625 12.5L10.6875 18.125L6.875 16.9375C6.0625 16.6875 6.0625 16.0625 7.0625 15.6875L22 9.9375C22.6875 9.6875 23.3125 10.125 23.0625 11.125Z" fill="#14345E"/>
</svg>
