<svg width="24" height="25" viewBox="0 0 24 25" fill="none" xmlns="http://www.w3.org/2000/svg">
<path d="M23.3934 2.38086L23.8924 2.3491C23.8795 2.14642 23.7453 1.97167 23.5528 1.90694C23.3603 1.8422 23.1477 1.90034 23.015 2.05405L23.3934 2.38086ZM22.2633 7.41301C22.2633 7.13687 22.0394 6.91301 21.7633 6.91301C21.4871 6.91301 21.2633 7.13687 21.2633 7.41301H22.2633ZM12.0001 8.92848V9.42848H12.5001V8.92848H12.0001ZM2.20167 2.38086L2.67219 2.21173C2.60399 2.02198 2.42849 1.89177 2.22712 1.88151C2.02575 1.87124 1.83792 1.98294 1.75078 2.16477L2.20167 2.38086ZM8.57153 17.857L8.9325 18.203C9.05031 18.0801 9.09748 17.9057 9.05768 17.7402C9.01788 17.5746 8.89658 17.4407 8.73576 17.3848L8.57153 17.857ZM0.571533 21.0883V20.5883C0.35302 20.5883 0.159818 20.7302 0.0944382 20.9387C0.0290588 21.1472 0.106648 21.3741 0.286038 21.4988L0.571533 21.0883ZM20.5161 4.03627L20.1385 4.36403L20.3202 4.57336L20.594 4.53016L20.5161 4.03627ZM22.8944 2.41262C22.9798 3.75421 22.9049 4.61649 22.6754 5.29062C22.4496 5.95348 22.0581 6.48216 21.41 7.12902L22.1165 7.83678C22.8155 7.13907 23.3259 6.48225 23.622 5.61299C23.9142 4.75501 23.9808 3.73856 23.8924 2.3491L22.8944 2.41262ZM22.2633 8.65211V7.4829H21.2633V8.65211H22.2633ZM22.2633 7.4829V7.41301H21.2633V7.4829H22.2633ZM11.5001 7.738V8.92848H12.5001V7.738H11.5001ZM16.9399 1.88086C13.8819 1.88086 11.5001 4.65153 11.5001 7.738H12.5001C12.5001 5.11172 14.522 2.88086 16.9399 2.88086V1.88086ZM21.2633 8.65211C21.2633 16.213 15.1791 22.7142 8.0001 22.7142V23.7142C15.7886 23.7142 22.2633 16.7064 22.2633 8.65211H21.2633ZM1.73114 2.54999C2.59277 4.94709 5.85575 9.42848 12.0001 9.42848V8.42848C6.4075 8.42848 3.4407 4.34978 2.67219 2.21173L1.73114 2.54999ZM1.75078 2.16477C0.0764072 5.65842 -0.198668 9.03835 0.949096 11.8995C2.09805 14.7636 4.63677 17.0181 8.4073 18.3293L8.73576 17.3848C5.1707 16.145 2.89434 14.0627 1.8772 11.5272C0.858867 8.98868 1.06666 5.90602 2.65256 2.59695L1.75078 2.16477ZM8.21057 17.5111C7.19283 18.5729 4.31488 20.5883 0.571533 20.5883V21.5883C4.65283 21.5883 7.77676 19.4088 8.9325 18.203L8.21057 17.5111ZM20.8937 3.70851C19.9229 2.59009 18.513 1.88086 16.9399 1.88086V2.88086C18.2034 2.88086 19.3442 3.44899 20.1385 4.36403L20.8937 3.70851ZM20.594 4.53016C21.7656 4.34533 22.9122 3.70307 23.7718 2.70767L23.015 2.05405C22.2999 2.88202 21.3617 3.39669 20.4382 3.54238L20.594 4.53016ZM0.286038 21.4988C2.84076 23.2757 5.30051 23.7142 8.0001 23.7142V22.7142C5.43143 22.7142 3.1927 22.3024 0.857028 20.6779L0.286038 21.4988Z" fill="#1A467E"/>
</svg>
