<svg xmlns="http://www.w3.org/2000/svg" viewBox="-6368 -3818 137.683 47">
  <defs>
    <style>
      .cls-1 {
        fill: #fff;
      }
    </style>
  </defs>
  <g id="OAX_open_asset_exchange" transform="translate(-6559.6 -4187.2)">
    <g id="Group_97739" data-name="Group 97739" transform="translate(191.6 369.2)">
      <path id="Path_36514" data-name="Path 36514" class="cls-1" d="M401.951,404.378l-3.9,7.822H389.4l23.489-47,15.667,31.333H419.7l-7.015-13.6-7.015,13.829Zm34.225,7.822h-8.651l-3.922-7.822h8.651Z" transform="translate(-345.067 -365.2)"/>
      <path id="Path_36515" data-name="Path 36515" class="cls-1" d="M620.611,382.6l-4.953,6.388L597.1,365.5h10.108Zm-4.953,6.186,4.953,6.388-13.4,17.1H597.1Zm9.906,0-4.953-6.388,13.4-17.1H643.9Zm0,0L643.9,412.278h-9.884l-13.4-17.1Z" transform="translate(-506.215 -365.278)"/>
      <g id="Group_97738" data-name="Group 97738" transform="translate(0 0.022)">
        <path id="Path_36516" data-name="Path 36516" class="cls-1" d="M231.786,372.091a22.523,22.523,0,0,1,6.791,16.7,23.417,23.417,0,0,1-6.791,16.7c-4.527,4.752-10.108,6.791-16.7,6.791a23.083,23.083,0,0,1-16.7-6.791,22.721,22.721,0,0,1-6.791-16.7,22.293,22.293,0,0,1,4.326-13.6l5.76,5.76a15.3,15.3,0,0,0-2.264,8.046,16.022,16.022,0,0,0,4.527,11.139,15.433,15.433,0,0,0,22.279,0,15.064,15.064,0,0,0,4.527-11.139,16.022,16.022,0,0,0-4.527-11.139,15.064,15.064,0,0,0-11.139-4.527,14.383,14.383,0,0,0-7.822,2.062l-5.76-5.76a22.293,22.293,0,0,1,13.6-4.326A22.67,22.67,0,0,1,231.786,372.091Z" transform="translate(-191.6 -365.3)"/>
      </g>
    </g>
  </g>
</svg>
